<svg xmlns="http://www.w3.org/2000/svg" x="0px" y="0px"
width="100%" height="100%"
viewBox="0 0 172 172"
style="fill:#000000;"><g fill="none" fill-rule="none" stroke="none" stroke-width="1" stroke-linecap="butt" stroke-linejoin="miter" stroke-miterlimit="10" stroke-dasharray="" stroke-dashoffset="0" font-family="none" font-weight="none" font-size="none" text-anchor="none" style="mix-blend-mode: normal"><path d="M0,172v-172h172v172z" fill="none" fill-rule="nonzero"></path><g fill="#ffffff" fill-rule="evenodd"><path d="M86,21.5c-35.63037,0 -64.5,28.86963 -64.5,64.5c0,28.4917 18.47656,52.6792 44.11279,61.20361c3.2334,0.58789 4.40918,-1.38574 4.40918,-3.10742c0,-1.53271 -0.06299,-5.58496 -0.08398,-10.95996c-17.95166,3.88428 -21.73096,-8.65039 -21.73096,-8.65039c-2.93945,-7.45361 -7.15967,-9.44824 -7.15967,-9.44824c-5.85791,-3.98926 0.44092,-3.90528 0.44092,-3.90528c6.4668,0.46192 9.86817,6.63477 9.86817,6.63477c5.75293,9.86817 15.09619,7.0127 18.77051,5.375c0.58789,-4.17822 2.26758,-7.01269 4.09424,-8.62939c-14.31934,-1.6167 -29.37354,-7.15967 -29.37354,-31.87207c0,-7.05469 2.51953,-12.80761 6.63477,-17.32178c-0.65088,-1.6167 -2.87646,-8.18848 0.62989,-17.06982c0,0 5.41699,-1.72168 17.7417,6.61377c5.14404,-1.42773 10.66602,-2.1416 16.14599,-2.16259c5.47998,0.02099 11.00195,0.73486 16.14599,2.16259c12.32471,-8.33545 17.7207,-6.61377 17.7207,-6.61377c3.52734,8.88134 1.32276,15.45313 0.65088,17.06982c4.13623,4.51416 6.61377,10.26709 6.61377,17.32178c0,24.77539 -15.0752,30.21338 -29.43653,31.83008c2.30957,1.97364 4.36719,5.9209 4.36719,11.92578c0,8.6294 -0.06298,15.5791 -0.06298,17.69971c0,1.72168 1.15478,3.7373 4.43017,3.10742c25.61523,-8.54541 44.0708,-32.71192 44.0708,-61.20361c0,-35.63037 -28.86963,-64.5 -64.5,-64.5z"></path></g></g></svg>